<?xml version="1.0" encoding="UTF-8"?>
<svg id="Layer_2" data-name="Layer 2" xmlns="http://www.w3.org/2000/svg" viewBox="0 0 528.19 119.47">
  <defs>
    <style>
      .cls-1 {
        fill: #204492;
      }

      .cls-2 {
        fill: #fff;
      }

      .cls-3 {
        fill: #18193d;
      }

      .cls-4 {
        fill: #f26f2c;
      }

      .cls-5 {
        fill: #1db5e9;
      }
    </style>
  </defs>
  <g id="Layer_1-2" data-name="Layer 1">
    <g>
      <path class="cls-4" d="M84.87,29.78l-39.64,39.64-15.43,15.43c.09-.71.14-1.42.14-2.13,0-4.85-2.11-9.46-5.79-12.62-3.68-3.16-8.56-4.55-13.35-3.81L50.46,26.63h22.03c2.87,2.17,6.38,3.34,9.98,3.33.8,0,1.6-.06,2.39-.18"/>
      <path class="cls-4" d="M82.53,26.61c2.15,0,4.26-.51,6.17-1.5-1.91,1.02-4.03,1.55-6.19,1.54-.29,0-.57,0-.85-.03h.88Z"/>
      <path class="cls-4" d="M91.92,22.71c-.07.09-.15.17-.24.24-.38.36-.78.7-1.2,1.01.5-.39.98-.8,1.43-1.25"/>
      <path class="cls-5" d="M95.82,13.33c0,.45-.02.91-.07,1.36-.02.28-.06.56-.12.83-.02.17-.06.33-.09.49-.19.93-.48,1.83-.86,2.7-.15.32-.31.64-.48.96-.1.19-.2.39-.31.55-.22.38-.46.74-.73,1.08-.25.32-.51.64-.79.95-.14.17-.29.32-.45.47-.45.45-.93.87-1.43,1.25l-.02.02c-.56.42-1.15.79-1.77,1.11-1.91.99-4.02,1.51-6.17,1.5h-.89c-6.99-.43-12.45-6.2-12.49-13.21-.04-7,5.35-12.84,12.33-13.36h1.05c.46,0,.89.02,1.37.07,1.45.16,2.86.55,4.18,1.16.27.13.54.25.77.39.39.2.74.42,1.1.67.26.17.51.35.75.54.05.05.1.08.15.13.2.15.39.31.57.48.15.15.31.3.46.45l1.62,1.95.35.55c.12.19.21.39.31.55,0,0,0,.02,0,.02.09.16.17.31.25.47.07.12.13.25.17.39.03.06.06.11.08.17l.03.12,1,3.8c.06.46.11.91.12,1.37h0Z"/>
      <path class="cls-4" d="M14.2,69.42c-.29-.02-.58-.03-.86-.03-6.22,0-11.62,4.29-13,10.36-1.38,6.06,1.61,12.28,7.22,14.97.22.1.44.2.66.29.22.09.39.15.57.22l.59.21c.41.13.83.23,1.25.31.89.19,1.79.29,2.7.29.34,0,.68-.01,1.02-.05,6.97-.53,12.34-6.36,12.3-13.36-.04-6.99-5.49-12.76-12.46-13.2h.02Z"/>
      <path class="cls-2" d="M95.82,13.32c0,.45-.02.91-.07,1.36-.02.28-.06.56-.12.83-.02.17-.06.33-.09.49-.19.93-.48,1.83-.86,2.7-.15.32-.31.64-.48.96-.1.19-.2.39-.31.55-.22.38-.46.74-.72,1.08-.25.32-.51.64-.79.95-.14.17-.29.32-.45.47-.07.09-.15.17-.24.24-.38.36-.78.7-1.2,1.01l-.02.02c-.56.42-1.15.79-1.77,1.11-1.91,1.02-4.03,1.55-6.19,1.54-.29,0-.57,0-.85-.03-6.99-.43-12.45-6.2-12.49-13.21-.04-7,5.35-12.84,12.33-13.36.34-.03.67-.05,1.01-.05.76,0,1.52.07,2.28.2.17.02.34.06.52.09.02.02.05.02.08.02.16.03.33.08.49.13.35.09.7.2,1.06.32.66.24,1.29.54,1.9.88l.04.02c.39.2.74.42,1.1.67.26.17.51.35.75.54h0s.1.08.15.13c.2.15.39.31.57.48.15.15.31.3.46.45.6.6,1.15,1.25,1.62,1.95h0s.35.55.35.55c.12.19.21.39.31.55,0,0,0,.02,0,.02.13.23.23.46.33.69.03.06.06.1.09.16.03.06.06.11.08.17l.04.12c.36.84.63,1.71.82,2.6.02.13.05.24.07.39.05.28.08.55.12.84.06.45.09.9.1,1.35h0Z"/>
      <path class="cls-4" d="M95.82,13.32c0,.45-.02.91-.07,1.36-.02.28-.06.56-.12.83-.02.17-.06.33-.09.49-.19.93-.48,1.83-.86,2.7-.15.32-.31.64-.48.96-.1.19-.2.39-.31.55-.22.38-.46.74-.72,1.08-.25.32-.51.64-.79.95-.14.17-.29.32-.45.47-.07.09-.15.17-.24.24-.38.36-.78.7-1.2,1.01l-.02.02c-.56.42-1.15.79-1.77,1.11-1.91,1.02-4.03,1.55-6.19,1.54-.29,0-.57,0-.85-.03-6.99-.43-12.45-6.2-12.49-13.21-.04-7,5.35-12.84,12.33-13.36.34-.03.67-.05,1.01-.05.76,0,1.52.07,2.28.2.17.02.34.06.52.09.02.02.05.02.08.02.16.03.33.08.49.13.35.09.7.2,1.06.32.66.24,1.29.54,1.9.88l.04.02c.39.2.74.42,1.1.67.26.17.51.35.75.54h0s.1.08.15.13c.2.15.39.31.57.48.15.15.31.3.46.45.6.6,1.15,1.25,1.62,1.95h0s.35.55.35.55c.12.19.21.39.31.55,0,0,0,.02,0,.02.13.23.23.46.33.69.03.06.06.1.09.16.03.06.06.11.08.17l.04.12c.36.84.63,1.71.82,2.6.02.13.05.24.07.39.05.28.08.55.12.84.06.45.09.9.1,1.35h0Z"/>
      <path class="cls-5" d="M65.88,13.33c0-5.23,2.46-10.15,6.65-13.28H13.94c-1.94,0-3.85.43-5.61,1.25-2.87,1.31-5.16,3.61-6.46,6.49-.8,1.74-1.22,3.63-1.22,5.55v13.28h71.87c-4.18-3.13-6.65-8.06-6.64-13.29"/>
      <path class="cls-1" d="M82.61,69.38h-3.9v.03H23.3c4.18,3.13,6.65,8.06,6.65,13.29,0,.71-.05,1.42-.14,2.13-.57,4.45-2.93,8.47-6.52,11.15h72.5v-13.39c0-7.29-5.9-13.2-13.18-13.2h0Z"/>
      <path class="cls-3" d="M213.5,44.89c-3.73,4.89-5.39,11.04-4.63,17.14-.25,5.59,1.2,11.13,4.16,15.89,1.36,1.59,3.14,2.77,5.14,3.38,2.39.92,5.02,1.01,7.47.25,2.85-1.01,5.23-3.01,6.72-5.63,2.31-4.48,3.41-9.48,3.17-14.51.3-4.68-.67-9.35-2.8-13.52-1.43-2.61-3.73-4.64-6.49-5.75-2.37-.84-4.95-.88-7.35-.13-2,.5-3.86,1.48-5.4,2.86v.02ZM201.77,88.93c-3.57-3.24-6.12-7.46-7.33-12.13-1.49-5.17-2.23-10.52-2.21-15.89.01-4.56.63-9.1,1.84-13.5,1.03-4.14,3-8,5.75-11.26,4.13-4.94,10-8.11,16.39-8.87,6.08-.98,12.31-.42,18.13,1.62,6.08,2.4,10.99,7.06,13.7,13.01,2.89,6.01,4.31,12.62,4.16,19.28.09,4.64-.48,9.28-1.7,13.76-.97,3.46-2.46,6.75-4.41,9.76-3.48,5.21-8.82,8.88-14.93,10.26-5.3,1.51-10.9,1.64-16.27.39-4.86-.95-9.38-3.17-13.11-6.43"/>
      <path class="cls-3" d="M303.39,61.91c.33-5.26-.95-10.5-3.66-15.02-2.36-3.47-6.35-5.46-10.53-5.26-4.1-.15-7.99,1.84-10.26,5.26-2.64,4.54-3.83,9.78-3.43,15.02-.37,5.03.92,10.04,3.67,14.27,2.35,3.46,6.33,5.46,10.52,5.26,4.03.11,7.83-1.88,10.03-5.26,2.66-4.27,3.94-9.25,3.67-14.27h0ZM275.51,110.96c.03,2.25-.85,4.42-2.44,6.01-1.53,1.62-3.66,2.53-5.88,2.51h-8.33v-62.32c0-11.68,3.34-19.65,10.03-23.91,6.49-4.19,14.06-6.41,21.78-6.37,4.22.03,8.41.83,12.34,2.38,3.86,1.37,7.28,3.75,9.91,6.88,5.14,7.3,7.73,16.1,7.35,25.02.43,9.08-2.15,18.06-7.35,25.52-4.34,6.07-11.38,9.62-18.84,9.51-3.71.08-7.4-.69-10.77-2.26-3.33-1.73-6.06-4.43-7.83-7.75l.03,24.78Z"/>
      <path class="cls-3" d="M371.34,61.91c.33-5.26-.95-10.5-3.68-15.02-2.34-3.47-6.33-5.46-10.5-5.26-4.11-.15-8,1.84-10.27,5.26-2.64,4.54-3.84,9.78-3.43,15.02-.37,5.03.92,10.04,3.67,14.27,2.35,3.46,6.33,5.45,10.52,5.26,4.03.11,7.83-1.88,10.03-5.26,2.67-4.26,3.95-9.25,3.68-14.27h0ZM343.46,110.96c.03,2.25-.85,4.42-2.46,6.01-1.52,1.62-3.65,2.53-5.87,2.51h-8.31v-62.32c0-11.68,3.34-19.65,10.03-23.91,6.49-4.19,14.06-6.41,21.78-6.37,4.22.03,8.41.84,12.34,2.38,3.85,1.38,7.27,3.75,9.91,6.88,5.14,7.3,7.72,16.1,7.35,25.02.42,9.08-2.16,18.05-7.35,25.52-4.34,6.07-11.38,9.62-18.84,9.51-3.71.08-7.4-.69-10.77-2.26-3.33-1.73-6.06-4.44-7.83-7.75v24.78Z"/>
      <path class="cls-3" d="M412.35,54.89h24.94c-.01-3.62-1.22-7.14-3.43-10-2.36-2.44-5.67-3.72-9.06-3.51-3.3-.12-6.49,1.16-8.8,3.51-2.45,2.75-3.75,6.33-3.65,10M441.69,74.42h12.24c-1.41,6.4-5.05,12.08-10.28,16.02-5.55,3.99-12.27,6.01-19.1,5.75-8.29.43-16.32-2.98-21.76-9.26-5.23-6-7.84-14.59-7.84-25.77-.53-8.98,2.15-17.85,7.58-25.02,5.45-6.27,13.48-9.68,21.77-9.26,8.54-.5,16.87,2.8,22.75,9,5.61,7.38,8.38,16.52,7.83,25.78v2.76c.04.59-.05,1.19-.25,1.75h-42.3c-.2,4.15,1.1,8.24,3.66,11.51,2.36,2.78,5.91,4.27,9.54,4.01,2.48.07,4.93-.53,7.09-1.75.51-.18.97-.48,1.35-.88.39-.41.85-.88,1.33-1.38.43-.81,1.07-1.5,1.84-2,1.32-.92,2.92-1.36,4.53-1.27"/>
      <path class="cls-3" d="M498.65,26.62h-1.28c-4.54,0-9.05.62-13.42,1.84-4.15,1.12-8.02,3.07-11.38,5.75-3.55,2.99-6.32,6.8-8.06,11.11-2.1,5.46-3.1,11.28-2.93,17.13v21.11s.07,0,.07,0v12.62h8.9c2.38.03,4.67-.95,6.3-2.68,1.71-1.7,2.66-4.02,2.62-6.43v-3.51s0-23.2,0-23.2c-.36-4.15.92-8.28,3.57-11.5,3.01-2.67,6.98-4,11-3.67h5.88v-18.56h-1.27Z"/>
      <path class="cls-3" d="M184.07,83.54c-1.71-1.71-4.03-2.65-6.44-2.61h-3.93v-.02h-24.21l36-39.42v-14.88h-55.64v5.76c-.05,2.31.87,4.54,2.54,6.14,1.63,1.62,3.84,2.51,6.14,2.47h25.78s-36.5,41.26-36.5,41.26v13.83h58.97v-6.05c.06-2.44-.92-4.79-2.7-6.47h0Z"/>
      <path d="M517.02,18.17h1.86c.63.07,1.27-.07,1.82-.39.32-.26.5-.65.49-1.06,0-.28-.08-.55-.24-.77-.16-.23-.39-.4-.65-.5-.5-.14-1.02-.19-1.54-.17h-1.75v2.88ZM515.48,23.52v-9.52h3.27c.82-.04,1.64.05,2.43.26.49.17.91.49,1.2.92.29.41.44.9.45,1.4,0,.68-.26,1.34-.74,1.82-.52.53-1.23.84-1.97.87.3.12.57.29.81.51.54.58,1.01,1.21,1.41,1.89l1.16,1.86h-1.87l-.84-1.5c-.4-.83-.94-1.58-1.61-2.21-.36-.24-.8-.36-1.23-.33h-.9v4.04h-1.53ZM519.36,11.25c-1.27,0-2.52.34-3.63.96-1.16.63-2.12,1.57-2.76,2.73-1.32,2.28-1.32,5.08,0,7.36.64,1.15,1.59,2.1,2.74,2.73,2.27,1.3,5.06,1.3,7.33,0,1.15-.63,2.1-1.58,2.73-2.73,1.31-2.28,1.31-5.08,0-7.36-.63-1.16-1.59-2.11-2.76-2.73-1.12-.62-2.37-.95-3.65-.96h0ZM519.36,9.79c1.52.01,3.02.41,4.35,1.16,1.4.75,2.54,1.88,3.3,3.27,1.57,2.73,1.57,6.1,0,8.83-.75,1.38-1.89,2.52-3.27,3.27-2.73,1.56-6.08,1.56-8.8,0-1.38-.76-2.52-1.89-3.27-3.27-1.57-2.73-1.57-6.1,0-8.83.76-1.39,1.91-2.53,3.31-3.27,1.34-.75,2.85-1.15,4.38-1.16"/>
    </g>
  </g>
</svg>
